<?xml version="1.0" standalone="no"?>
<!DOCTYPE svg PUBLIC "-//W3C//DTD SVG 20010904//EN"
 "http://www.w3.org/TR/2001/REC-SVG-20010904/DTD/svg10.dtd">
<svg version="1.0" xmlns="http://www.w3.org/2000/svg"
 width="70.000000pt" height="70.000000pt" viewBox="0 0 70.000000 70.000000"
 preserveAspectRatio="xMidYMid meet">

<g transform="translate(0.000000,70.000000) scale(0.100000,-0.100000)"
fill="#000000" stroke="none">
<path d="M121 582 c-17 -31 -14 -46 14 -72 14 -13 25 -33 25 -45 0 -19 24 -46
102 -114 l27 -23 10 33 c10 33 10 33 5 -8 -5 -34 -2 -43 14 -52 18 -9 19 -8
15 12 -3 16 -2 18 5 8 7 -10 14 0 27 38 9 28 14 55 11 60 -4 5 -1 13 5 16 12
8 291 7 298 -1 3 -3 -4 -33 -17 -66 -12 -34 -20 -63 -18 -65 5 -6 46 107 46
128 0 18 -10 19 -142 21 l-143 2 120 6 c117 5 137 19 32 21 -46 1 -48 2 -17 8
33 6 30 8 -85 56 -112 46 -127 49 -222 53 -94 4 -102 3 -112 -16z m284 -99
c-68 -5 -74 -8 -85 -55 -7 -28 -8 -29 -9 -8 -1 14 6 36 15 48 13 19 23 22 77
20 l62 -2 -60 -3z m-46 -112 c-6 -18 -13 -30 -15 -28 -2 2 1 18 7 36 6 18 13
30 15 28 2 -2 -1 -18 -7 -36z"/>
<path d="M120 491 c0 -30 24 -66 89 -134 50 -52 111 -97 111 -82 0 4 -38 42
-85 87 -58 55 -85 87 -85 103 0 12 -7 28 -15 35 -13 10 -15 9 -15 -9z"/>
<path d="M591 353 c0 -86 12 -76 23 20 6 48 5 57 -8 57 -13 0 -16 -13 -15 -77z"/>
<path d="M626 393 c-3 -21 -6 -51 -5 -68 0 -29 1 -28 20 14 32 72 34 91 11 91
-15 0 -21 -9 -26 -37z"/>
<path d="M404 397 c-3 -8 -6 -34 -7 -58 l-2 -44 75 0 c71 0 75 1 76 23 1 18 1
19 -3 2 -2 -11 -12 -20 -21 -20 -13 0 -14 2 -3 9 7 5 16 29 18 55 l6 46 -67 0
c-46 0 -68 -4 -72 -13z m96 -13 c16 -18 4 -61 -22 -78 -36 -22 -77 51 -46 82
17 17 53 15 68 -4z"/>
<path d="M460 375 c0 -8 -7 -15 -16 -15 -27 0 -11 -35 18 -38 22 -3 29 2 34
22 3 14 3 30 -1 35 -9 16 -35 13 -35 -4z"/>
<path d="M552 375 c0 -16 2 -22 5 -12 2 9 2 23 0 30 -3 6 -5 -1 -5 -18z"/>
<path d="M38 343 c-14 -3 -16 -8 -8 -24 6 -11 9 -54 7 -97 l-3 -77 -2 82 c-3
119 -22 117 -22 -2 0 -71 3 -94 12 -89 8 5 9 2 5 -9 -11 -30 56 5 71 37 14 27
15 28 88 23 54 -3 80 -9 95 -23 19 -17 23 -17 47 -3 30 16 45 79 20 79 -14 0
-29 10 -89 58 -36 29 -38 15 -4 -22 l26 -28 -78 6 c-50 3 -69 2 -53 -3 23 -8
24 -9 3 -10 -26 -1 -34 10 -48 64 -11 41 -27 49 -67 38z m30 -98 c-8 -19 -8
-28 2 -42 13 -17 13 -17 -4 -1 -13 11 -17 24 -12 42 3 14 11 26 16 26 6 0 5
-10 -2 -25z m191 -27 c-1 -16 -3 -18 -6 -6 -2 10 -17 18 -36 21 -31 4 -31 4 6
5 33 2 37 -1 36 -20z"/>
<path d="M330 271 c0 -10 19 -25 25 -20 1 2 -3 10 -11 17 -8 7 -14 8 -14 3z"/>
<path d="M418 253 c29 -2 74 -2 100 0 26 2 2 3 -53 3 -55 0 -76 -1 -47 -3z"/>
</g>
</svg>
